<?xml version="1.0" encoding="UTF-8"?>
<!DOCTYPE svg PUBLIC "-//W3C//DTD SVG 1.1//EN" "http://www.w3.org/Graphics/SVG/1.1/DTD/svg11.dtd">
<svg xmlns="http://www.w3.org/2000/svg" version="1.1" width="525px" height="555px" style="shape-rendering:geometricPrecision; text-rendering:geometricPrecision; image-rendering:optimizeQuality; fill-rule:evenodd; clip-rule:evenodd" xmlns:xlink="http://www.w3.org/1999/xlink">
<g><path style="opacity:1" fill="#000000" d="M -0.5,-0.5 C 174.5,-0.5 349.5,-0.5 524.5,-0.5C 524.5,184.5 524.5,369.5 524.5,554.5C 349.5,554.5 174.5,554.5 -0.5,554.5C -0.5,369.5 -0.5,184.5 -0.5,-0.5 Z"/></g>
<g><path style="opacity:1" fill="#69ab81" d="M 124.5,135.5 C 204.998,134.501 285.665,134.167 366.5,134.5C 366.5,158.833 366.5,183.167 366.5,207.5C 366.167,207.5 365.833,207.5 365.5,207.5C 365.5,196.833 365.5,186.167 365.5,175.5C 365.5,162.167 365.5,148.833 365.5,135.5C 286.167,135.5 206.833,135.5 127.5,135.5C 126.5,135.5 125.5,135.5 124.5,135.5 Z"/></g>
<g><path style="opacity:1" fill="#75d297" d="M 127.5,136.5 C 127.5,136.167 127.5,135.833 127.5,135.5C 206.833,135.5 286.167,135.5 365.5,135.5C 365.5,148.833 365.5,162.167 365.5,175.5C 364.512,180.64 364.179,185.974 364.5,191.5C 363.5,191.5 362.5,191.5 361.5,191.5C 361.83,174.325 361.497,157.325 360.5,140.5C 283.5,140.5 206.5,140.5 129.5,140.5C 129.918,139.778 130.584,139.278 131.5,139C 205.836,138.833 280.169,138.333 354.5,137.5C 278.836,136.5 203.17,136.167 127.5,136.5 Z"/></g>
<g><path style="opacity:1" fill="#70e397" d="M 127.5,136.5 C 203.17,136.167 278.836,136.5 354.5,137.5C 280.169,138.333 205.836,138.833 131.5,139C 130.584,139.278 129.918,139.778 129.5,140.5C 129.5,140.833 129.5,141.167 129.5,141.5C 128.167,141.5 127.5,142.167 127.5,143.5C 128.113,149.271 127.446,154.604 125.5,159.5C 125.334,152.492 125.5,145.492 126,138.5C 126.717,137.956 127.217,137.289 127.5,136.5 Z"/></g>
<g><path style="opacity:1" fill="#173d25" d="M 129.5,140.5 C 206.5,140.5 283.5,140.5 360.5,140.5C 360.5,189.5 360.5,238.5 360.5,287.5C 360.167,287.5 359.833,287.5 359.5,287.5C 359.5,238.833 359.5,190.167 359.5,141.5C 282.826,140.836 206.493,141.503 130.5,143.5C 130.832,181.004 130.498,218.337 129.5,255.5C 129.5,234.167 129.5,212.833 129.5,191.5C 129.5,174.833 129.5,158.167 129.5,141.5C 129.5,141.167 129.5,140.833 129.5,140.5 Z"/></g>
<g><path style="opacity:1" fill="#000600" d="M 359.5,287.5 C 358.831,239.431 358.164,191.264 357.5,143C 281.793,142.173 206.126,142.34 130.5,143.5C 206.493,141.503 282.826,140.836 359.5,141.5C 359.5,190.167 359.5,238.833 359.5,287.5 Z"/></g>
<g><path style="opacity:1" fill="#61b286" d="M 129.5,141.5 C 129.5,158.167 129.5,174.833 129.5,191.5C 129.167,191.5 128.833,191.5 128.5,191.5C 128.83,175.325 128.496,159.325 127.5,143.5C 127.5,142.167 128.167,141.5 129.5,141.5 Z"/></g>
<g><path style="opacity:1" fill="#36694d" d="M 366.5,134.5 C 285.665,134.167 204.998,134.501 124.5,135.5C 124.5,164.833 124.5,194.167 124.5,223.5C 124.5,233.833 124.5,244.167 124.5,254.5C 124.5,254.833 124.5,255.167 124.5,255.5C 123.501,215.003 123.168,174.337 123.5,133.5C 204.668,133.167 285.668,133.501 366.5,134.5 Z"/></g>
<g><path style="opacity:1" fill="#193f25" d="M 255.5,183.5 C 230.853,182.382 206.186,182.215 181.5,183C 180.62,184.356 180.286,185.856 180.5,187.5C 179.193,185.777 179.193,183.943 180.5,182C 204.167,181.333 227.833,181.333 251.5,182C 253.058,182.21 254.391,182.71 255.5,183.5 Z"/></g>
<g><path style="opacity:1" fill="#6fdaa1" d="M 127.5,143.5 C 128.496,159.325 128.83,175.325 128.5,191.5C 127.5,191.5 126.5,191.5 125.5,191.5C 125.5,180.833 125.5,170.167 125.5,159.5C 127.446,154.604 128.113,149.271 127.5,143.5 Z"/></g>
<g><path style="opacity:1" fill="#72e69a" d="M 255.5,184.5 C 239.693,186.162 223.693,187.162 207.5,187.5C 207.5,187.833 207.5,188.167 207.5,188.5C 207.5,188.833 207.5,189.167 207.5,189.5C 207.167,189.5 206.833,189.5 206.5,189.5C 203.436,189.856 200.769,189.023 198.5,187C 193.798,186.828 189.132,186.328 184.5,185.5C 208.157,184.5 231.824,184.167 255.5,184.5 Z"/></g>
<g><path style="opacity:1" fill="#75c18d" d="M 207.5,188.5 C 207.5,188.167 207.5,187.833 207.5,187.5C 223.503,187.333 239.503,187.5 255.5,188C 257.167,188.333 258.833,188.667 260.5,189C 261.252,189.671 261.586,190.504 261.5,191.5C 260.833,191.5 260.167,191.5 259.5,191.5C 255.767,190.023 251.767,189.189 247.5,189C 234.171,188.5 220.837,188.333 207.5,188.5 Z"/></g>
<g><path style="opacity:1" fill="#142a1b" d="M 267.5,186.5 C 270.764,187.324 274.098,187.658 277.5,187.5C 277.5,188.833 277.5,190.167 277.5,191.5C 273.86,190.347 270.526,188.68 267.5,186.5 Z"/></g>
<g><path style="opacity:1" fill="#11341b" d="M 207.5,189.5 C 207.5,189.167 207.5,188.833 207.5,188.5C 220.837,188.333 234.171,188.5 247.5,189C 251.767,189.189 255.767,190.023 259.5,191.5C 242.274,189.748 224.94,189.081 207.5,189.5 Z"/></g>
<g><path style="opacity:1" fill="#010100" d="M 207.5,189.5 C 224.94,189.081 242.274,189.748 259.5,191.5C 260.167,191.5 260.833,191.5 261.5,191.5C 262.167,191.5 262.833,191.5 263.5,191.5C 271.797,196.32 279.797,201.654 287.5,207.5C 287.5,208.167 287.5,208.833 287.5,209.5C 287.738,211.404 288.738,212.738 290.5,213.5C 290.738,215.404 291.738,216.738 293.5,217.5C 294.338,217.842 294.672,218.508 294.5,219.5C 294.66,221.153 295.326,222.486 296.5,223.5C 297.434,224.568 297.768,225.901 297.5,227.5C 298.129,230.397 299.129,233.064 300.5,235.5C 300.7,241.504 301.034,247.504 301.5,253.5C 300.231,260.069 299.564,266.735 299.5,273.5C 297.695,277.996 296.362,282.662 295.5,287.5C 295.167,287.5 294.833,287.5 294.5,287.5C 293.326,288.514 292.66,289.847 292.5,291.5C 290.1,293.296 288.433,295.63 287.5,298.5C 285.413,299.585 284.08,301.251 283.5,303.5C 280.262,304.738 277.596,306.738 275.5,309.5C 273.046,310.227 270.713,311.227 268.5,312.5C 261.06,314.807 253.393,315.974 245.5,316C 246.634,317.016 246.301,317.683 244.5,318C 232.171,318.5 219.838,318.667 207.5,318.5C 207.5,275.5 207.5,232.5 207.5,189.5 Z"/></g>
<g><path style="opacity:1" fill="#75db9a" d="M 255.5,184.5 C 259.626,184.572 263.626,185.239 267.5,186.5C 270.526,188.68 273.86,190.347 277.5,191.5C 278.167,191.5 278.5,191.833 278.5,192.5C 278.973,193.906 279.973,194.573 281.5,194.5C 281.833,195.167 282.167,195.833 282.5,196.5C 282.5,197.5 282.5,198.5 282.5,199.5C 277.785,197.306 273.119,194.806 268.5,192C 266.866,191.506 265.199,191.34 263.5,191.5C 262.833,191.5 262.167,191.5 261.5,191.5C 261.586,190.504 261.252,189.671 260.5,189C 258.833,188.667 257.167,188.333 255.5,188C 239.503,187.5 223.503,187.333 207.5,187.5C 223.693,187.162 239.693,186.162 255.5,184.5 Z"/></g>
<g><path style="opacity:1" fill="#5d9e74" d="M 200.5,190.5 C 201.499,233.33 201.832,276.33 201.5,319.5C 200.833,319.5 200.167,319.5 199.5,319.5C 200.489,276.543 200.822,233.543 200.5,190.5 Z"/></g>
<g><path style="opacity:1" fill="#77d198" d="M 255.5,183.5 C 255.5,183.833 255.5,184.167 255.5,184.5C 231.824,184.167 208.157,184.5 184.5,185.5C 189.132,186.328 193.798,186.828 198.5,187C 200.769,189.023 203.436,189.856 206.5,189.5C 205.506,232.761 205.172,276.094 205.5,319.5C 204.833,276.998 204.167,234.331 203.5,191.5C 202.833,234.331 202.167,276.998 201.5,319.5C 201.832,276.33 201.499,233.33 200.5,190.5C 200.389,189.883 200.056,189.383 199.5,189C 192.987,188.828 186.653,188.328 180.5,187.5C 180.286,185.856 180.62,184.356 181.5,183C 206.186,182.215 230.853,182.382 255.5,183.5 Z"/></g>
<g><path style="opacity:1" fill="#569d6b" d="M 206.5,189.5 C 206.833,189.5 207.167,189.5 207.5,189.5C 207.5,232.5 207.5,275.5 207.5,318.5C 207.5,318.833 207.5,319.167 207.5,319.5C 206.833,319.5 206.167,319.5 205.5,319.5C 205.172,276.094 205.506,232.761 206.5,189.5 Z"/></g>
<g><path style="opacity:1" fill="#254d34" d="M 278.5,192.5 C 280.027,192.427 281.027,193.094 281.5,194.5C 279.973,194.573 278.973,193.906 278.5,192.5 Z"/></g>
<g><path style="opacity:1" fill="#72c991" d="M 263.5,191.5 C 265.199,191.34 266.866,191.506 268.5,192C 273.119,194.806 277.785,197.306 282.5,199.5C 282.5,198.5 282.5,197.5 282.5,196.5C 287.188,199.188 290.855,202.855 293.5,207.5C 291.852,206.19 290.186,204.857 288.5,203.5C 287.5,204 286.5,204.5 285.5,205C 286.756,205.417 287.423,206.25 287.5,207.5C 279.797,201.654 271.797,196.32 263.5,191.5 Z"/></g>
<g><path style="opacity:1" fill="#5ba587" d="M 128.5,191.5 C 128.833,191.5 129.167,191.5 129.5,191.5C 129.5,212.833 129.5,234.167 129.5,255.5C 127.833,255.5 126.167,255.5 124.5,255.5C 124.5,255.167 124.5,254.833 124.5,254.5C 125.833,254.5 127.167,254.5 128.5,254.5C 128.5,238.833 128.5,223.167 128.5,207.5C 128.5,202.167 128.5,196.833 128.5,191.5 Z"/></g>
<g><path style="opacity:1" fill="#6dd1a5" d="M 365.5,175.5 C 365.5,186.167 365.5,196.833 365.5,207.5C 365.5,218.167 365.5,228.833 365.5,239.5C 364.167,239.5 362.833,239.5 361.5,239.5C 361.5,223.5 361.5,207.5 361.5,191.5C 362.5,191.5 363.5,191.5 364.5,191.5C 364.179,185.974 364.512,180.64 365.5,175.5 Z"/></g>
<g><path style="opacity:1" fill="#225a35" d="M 287.5,209.5 C 289.262,210.262 290.262,211.596 290.5,213.5C 288.738,212.738 287.738,211.404 287.5,209.5 Z"/></g>
<g><path style="opacity:1" fill="#74d3a5" d="M 124.5,135.5 C 125.5,135.5 126.5,135.5 127.5,135.5C 127.5,135.833 127.5,136.167 127.5,136.5C 127.217,137.289 126.717,137.956 126,138.5C 125.5,145.492 125.334,152.492 125.5,159.5C 125.5,170.167 125.5,180.833 125.5,191.5C 126.5,191.5 127.5,191.5 128.5,191.5C 128.5,196.833 128.5,202.167 128.5,207.5C 127.512,212.64 127.179,217.974 127.5,223.5C 126.5,223.5 125.5,223.5 124.5,223.5C 124.5,194.167 124.5,164.833 124.5,135.5 Z"/></g>
<g><path style="opacity:1" fill="#265934" d="M 290.5,213.5 C 292.262,214.262 293.262,215.596 293.5,217.5C 291.738,216.738 290.738,215.404 290.5,213.5 Z"/></g>
<g><path style="opacity:1" fill="#508e64" d="M 294.5,207.5 C 297.223,210.586 299.723,213.92 302,217.5C 303.128,219.345 303.628,221.345 303.5,223.5C 300.927,219.409 298.093,215.409 295,211.5C 294.51,210.207 294.343,208.873 294.5,207.5 Z"/></g>
<g><path style="opacity:1" fill="#337045" d="M 294.5,219.5 C 296.104,220.287 296.771,221.62 296.5,223.5C 295.326,222.486 294.66,221.153 294.5,219.5 Z"/></g>
<g><path style="opacity:1" fill="#112718" d="M 303.5,223.5 C 304.833,223.5 306.167,223.5 307.5,223.5C 307.437,228.203 307.771,232.87 308.5,237.5C 306.462,233.06 304.796,228.393 303.5,223.5 Z"/></g>
<g><path style="opacity:1" fill="#1e4d2c" d="M 297.5,227.5 C 299.655,229.617 300.655,232.284 300.5,235.5C 299.129,233.064 298.129,230.397 297.5,227.5 Z"/></g>
<g><path style="opacity:1" fill="#6ccaa8" d="M 128.5,207.5 C 128.5,223.167 128.5,238.833 128.5,254.5C 127.167,254.5 125.833,254.5 124.5,254.5C 124.5,244.167 124.5,233.833 124.5,223.5C 125.5,223.5 126.5,223.5 127.5,223.5C 127.179,217.974 127.512,212.64 128.5,207.5 Z"/></g>
<g><path style="opacity:1" fill="#0f2c1a" d="M 300.5,235.5 C 301.167,236.833 301.833,238.167 302.5,239.5C 302.679,250.19 302.345,260.857 301.5,271.5C 300.662,271.842 300.328,272.508 300.5,273.5C 300.167,273.5 299.833,273.5 299.5,273.5C 299.564,266.735 300.231,260.069 301.5,253.5C 301.034,247.504 300.7,241.504 300.5,235.5 Z"/></g>
<g><path style="opacity:1" fill="#78e199" d="M 301.5,271.5 C 303.476,261.219 304.143,250.552 303.5,239.5C 303.215,237.712 303.548,236.045 304.5,234.5C 305.086,234.709 305.586,235.043 306,235.5C 306.4,248.178 306.066,260.845 305,273.5C 303.957,275.701 303.123,278.034 302.5,280.5C 301.516,277.572 301.183,274.572 301.5,271.5 Z"/></g>
<g><path style="opacity:1" fill="#67a37f" d="M 302.5,239.5 C 302.833,239.5 303.167,239.5 303.5,239.5C 304.143,250.552 303.476,261.219 301.5,271.5C 302.345,260.857 302.679,250.19 302.5,239.5 Z"/></g>
<g><path style="opacity:1" fill="#72d094" d="M 293.5,207.5 C 293.833,207.5 294.167,207.5 294.5,207.5C 294.343,208.873 294.51,210.207 295,211.5C 298.093,215.409 300.927,219.409 303.5,223.5C 304.796,228.393 306.462,233.06 308.5,237.5C 309.991,249.007 309.658,260.341 307.5,271.5C 305.96,273.838 305.294,276.505 305.5,279.5C 303.462,283.261 301.796,287.261 300.5,291.5C 299.857,293.076 298.857,294.41 297.5,295.5C 295.05,297.629 293.383,300.296 292.5,303.5C 292.167,303.5 291.833,303.5 291.5,303.5C 290.167,304.833 288.833,306.167 287.5,307.5C 287.449,305.43 288.115,303.597 289.5,302C 289.164,300.97 288.497,300.47 287.5,300.5C 287.5,299.833 287.5,299.167 287.5,298.5C 290.773,297.404 292.439,295.071 292.5,291.5C 294.104,290.713 294.771,289.38 294.5,287.5C 294.833,287.5 295.167,287.5 295.5,287.5C 298.049,283.236 299.715,278.569 300.5,273.5C 300.328,272.508 300.662,271.842 301.5,271.5C 301.183,274.572 301.516,277.572 302.5,280.5C 303.123,278.034 303.957,275.701 305,273.5C 306.066,260.845 306.4,248.178 306,235.5C 305.586,235.043 305.086,234.709 304.5,234.5C 303.548,236.045 303.215,237.712 303.5,239.5C 303.167,239.5 302.833,239.5 302.5,239.5C 301.833,238.167 301.167,236.833 300.5,235.5C 300.655,232.284 299.655,229.617 297.5,227.5C 297.768,225.901 297.434,224.568 296.5,223.5C 296.771,221.62 296.104,220.287 294.5,219.5C 294.672,218.508 294.338,217.842 293.5,217.5C 293.262,215.596 292.262,214.262 290.5,213.5C 290.262,211.596 289.262,210.262 287.5,209.5C 287.5,208.833 287.5,208.167 287.5,207.5C 287.423,206.25 286.756,205.417 285.5,205C 286.5,204.5 287.5,204 288.5,203.5C 290.186,204.857 291.852,206.19 293.5,207.5 Z"/></g>
<g><path style="opacity:1" fill="#6bc3a8" d="M 361.5,239.5 C 362.833,239.5 364.167,239.5 365.5,239.5C 365.5,260.833 365.5,282.167 365.5,303.5C 364.167,303.5 362.833,303.5 361.5,303.5C 361.5,282.167 361.5,260.833 361.5,239.5 Z"/></g>
<g><path style="opacity:1" fill="#306740" d="M 307.5,271.5 C 307.435,274.428 306.768,277.095 305.5,279.5C 305.294,276.505 305.96,273.838 307.5,271.5 Z"/></g>
<g><path style="opacity:1" fill="#3c6e4a" d="M 299.5,273.5 C 299.833,273.5 300.167,273.5 300.5,273.5C 299.715,278.569 298.049,283.236 295.5,287.5C 296.362,282.662 297.695,277.996 299.5,273.5 Z"/></g>
<g><path style="opacity:1" fill="#1f3221" d="M 305.5,279.5 C 304.39,283.406 303.557,287.406 303,291.5C 302.23,290.402 301.397,290.402 300.5,291.5C 301.796,287.261 303.462,283.261 305.5,279.5 Z"/></g>
<g><path style="opacity:1" fill="#325836" d="M 294.5,287.5 C 294.771,289.38 294.104,290.713 292.5,291.5C 292.66,289.847 293.326,288.514 294.5,287.5 Z"/></g>
<g><path style="opacity:1" fill="#48865b" d="M 292.5,291.5 C 292.439,295.071 290.773,297.404 287.5,298.5C 288.433,295.63 290.1,293.296 292.5,291.5 Z"/></g>
<g><path style="opacity:1" fill="#2d593a" d="M 297.5,295.5 C 296.66,298.676 294.993,301.342 292.5,303.5C 293.383,300.296 295.05,297.629 297.5,295.5 Z"/></g>
<g><path style="opacity:1" fill="#48825e" d="M 287.5,298.5 C 287.5,299.167 287.5,299.833 287.5,300.5C 286.167,301.5 284.833,302.5 283.5,303.5C 284.08,301.251 285.413,299.585 287.5,298.5 Z"/></g>
<g><path style="opacity:1" fill="#152d1b" d="M 291.5,303.5 C 291.33,304.822 291.663,305.989 292.5,307C 291.333,308.167 290.167,309.333 289,310.5C 288.586,310.043 288.086,309.709 287.5,309.5C 285.33,312.012 282.663,313.679 279.5,314.5C 282.167,312.167 284.833,309.833 287.5,307.5C 288.833,306.167 290.167,304.833 291.5,303.5 Z"/></g>
<g><path style="opacity:1" fill="#1a3723" d="M 279.5,314.5 C 277.797,317.632 275.13,319.299 271.5,319.5C 274.12,317.838 276.787,316.172 279.5,314.5 Z"/></g>
<g><path style="opacity:1" fill="#74e09b" d="M 205.5,319.5 C 206.167,319.5 206.833,319.5 207.5,319.5C 220.833,319.5 234.167,319.5 247.5,319.5C 251.846,319.666 256.179,319.499 260.5,319C 265.837,317.325 270.837,315.158 275.5,312.5C 275.5,311.5 275.5,310.5 275.5,309.5C 279.177,308.738 281.844,306.738 283.5,303.5C 284.833,302.5 286.167,301.5 287.5,300.5C 288.497,300.47 289.164,300.97 289.5,302C 288.115,303.597 287.449,305.43 287.5,307.5C 284.833,309.833 282.167,312.167 279.5,314.5C 276.787,316.172 274.12,317.838 271.5,319.5C 271.167,319.5 270.833,319.5 270.5,319.5C 269.833,319.5 269.167,319.5 268.5,319.5C 259.024,321.783 249.357,322.95 239.5,323C 220.503,323.5 201.503,323.667 182.5,323.5C 182.737,322.209 182.404,321.209 181.5,320.5C 187.31,319.51 193.31,319.177 199.5,319.5C 200.167,319.5 200.833,319.5 201.5,319.5C 202.167,276.998 202.833,234.331 203.5,191.5C 204.167,234.331 204.833,276.998 205.5,319.5 Z"/></g>
<g><path style="opacity:1" fill="#73c08f" d="M 275.5,309.5 C 275.5,310.5 275.5,311.5 275.5,312.5C 270.837,315.158 265.837,317.325 260.5,319C 256.179,319.499 251.846,319.666 247.5,319.5C 255.032,318.864 262.032,316.531 268.5,312.5C 270.713,311.227 273.046,310.227 275.5,309.5 Z"/></g>
<g><path style="opacity:1" fill="#18251b" d="M 268.5,312.5 C 262.032,316.531 255.032,318.864 247.5,319.5C 234.167,319.5 220.833,319.5 207.5,319.5C 207.5,319.167 207.5,318.833 207.5,318.5C 219.838,318.667 232.171,318.5 244.5,318C 246.301,317.683 246.634,317.016 245.5,316C 253.393,315.974 261.06,314.807 268.5,312.5 Z"/></g>
<g><path style="opacity:1" fill="#599f6f" d="M 283.5,303.5 C 281.844,306.738 279.177,308.738 275.5,309.5C 277.596,306.738 280.262,304.738 283.5,303.5 Z"/></g>
<g><path style="opacity:1" fill="#1b4027" d="M 268.5,319.5 C 269.167,319.5 269.833,319.5 270.5,319.5C 269.251,321.136 267.584,322.303 265.5,323C 262.173,323.61 258.839,324.11 255.5,324.5C 259.932,323.146 264.265,321.479 268.5,319.5 Z"/></g>
<g><path style="opacity:1" fill="#7fd7a2" d="M 268.5,319.5 C 264.265,321.479 259.932,323.146 255.5,324.5C 252.833,324.5 250.167,324.5 247.5,324.5C 225.5,324.5 203.5,324.5 181.5,324.5C 181.5,323.167 181.5,321.833 181.5,320.5C 182.404,321.209 182.737,322.209 182.5,323.5C 201.503,323.667 220.503,323.5 239.5,323C 249.357,322.95 259.024,321.783 268.5,319.5 Z"/></g>
<g><path style="opacity:1" fill="#6db08a" d="M 181.5,320.5 C 181.5,321.833 181.5,323.167 181.5,324.5C 203.5,324.5 225.5,324.5 247.5,324.5C 225.673,325.497 203.673,325.831 181.5,325.5C 180.167,323.833 180.167,322.167 181.5,320.5 Z"/></g>
<g><path style="opacity:1" fill="#0b351c" d="M 247.5,324.5 C 250.167,324.5 252.833,324.5 255.5,324.5C 253.708,325.309 251.708,325.809 249.5,326C 226.663,326.83 203.996,326.663 181.5,325.5C 203.673,325.831 225.673,325.497 247.5,324.5 Z"/></g>
<g><path style="opacity:1" fill="#61b8ad" d="M 361.5,303.5 C 362.833,303.5 364.167,303.5 365.5,303.5C 365.5,314.167 365.5,324.833 365.5,335.5C 364.506,345.987 364.172,356.654 364.5,367.5C 363.5,367.5 362.5,367.5 361.5,367.5C 361.5,346.167 361.5,324.833 361.5,303.5 Z"/></g>
<g><path style="opacity:1" fill="#0d2529" d="M 359.5,287.5 C 359.833,287.5 360.167,287.5 360.5,287.5C 360.5,315.167 360.5,342.833 360.5,370.5C 322.167,370.5 283.833,370.5 245.5,370.5C 283.33,369.501 321.33,369.168 359.5,369.5C 359.5,342.167 359.5,314.833 359.5,287.5 Z"/></g>
<g><path style="opacity:1" fill="#5a9c9f" d="M 360.5,140.5 C 361.497,157.325 361.83,174.325 361.5,191.5C 361.5,207.5 361.5,223.5 361.5,239.5C 361.5,260.833 361.5,282.167 361.5,303.5C 361.5,324.833 361.5,346.167 361.5,367.5C 362.5,367.5 363.5,367.5 364.5,367.5C 364.172,356.654 364.506,345.987 365.5,335.5C 365.5,348.833 365.5,362.167 365.5,375.5C 325.833,375.5 286.167,375.5 246.5,375.5C 245.549,374.081 245.216,372.415 245.5,370.5C 283.833,370.5 322.167,370.5 360.5,370.5C 360.5,342.833 360.5,315.167 360.5,287.5C 360.5,238.5 360.5,189.5 360.5,140.5 Z"/></g>
<g><path style="opacity:1" fill="#508481" d="M 365.5,207.5 C 365.833,207.5 366.167,207.5 366.5,207.5C 366.5,263.833 366.5,320.167 366.5,376.5C 326.33,376.832 286.33,376.499 246.5,375.5C 286.167,375.5 325.833,375.5 365.5,375.5C 365.5,362.167 365.5,348.833 365.5,335.5C 365.5,324.833 365.5,314.167 365.5,303.5C 365.5,282.167 365.5,260.833 365.5,239.5C 365.5,228.833 365.5,218.167 365.5,207.5 Z"/></g>
<g><path style="opacity:1" fill="#153335" d="M 245.5,370.5 C 245.216,372.415 245.549,374.081 246.5,375.5C 286.33,376.499 326.33,376.832 366.5,376.5C 326.003,377.499 285.337,377.832 244.5,377.5C 244.198,374.941 244.532,372.607 245.5,370.5 Z"/></g>
</svg>
